<svg xmlns="http://www.w3.org/2000/svg" viewBox="0 0 151.19 159.45"><title>Asset 3</title><g id="Layer_2" data-name="Layer 2"><g id="Layer_1-2" data-name="Layer 1"><path d="M91.34,80c5.33-.16,5.33-.16,7.19,4.81,1.49,4,3,7.95,4.46,12,1.08,3,.89,4.11-2.06,5.42-3.66,1.62-5,4.08-4.36,7.89a9.72,9.72,0,0,1,0,2.35,3.76,3.76,0,0,0,1.68,3.75c1,.7,1.87,1.6,2.81,2.39a3.75,3.75,0,0,1,1.16,4.81c-2,4.5-4.07,9-6,13.51a3.61,3.61,0,0,1-4,2.4c-1.67-.11-3.34-.26-5-.46a5.35,5.35,0,0,0-4.83,1.75,16.17,16.17,0,0,1-2,1.8,3.06,3.06,0,0,0-1.16,3.56c.31,1.19.52,2.41.75,3.62a3.06,3.06,0,0,1-2,3.8c-5.22,2-10.48,3.95-15.73,5.89a3.19,3.19,0,0,1-3.89-1.14c-1.18-1.49-2.41-2.95-3.55-4.48A3.07,3.07,0,0,0,52,152.25c-3.84.2-7.38.55-10,4.24s-3.59,3.55-7.72,1.75c-3.19-1.38-6.38-2.74-9.55-4.15-2.83-1.26-3.33-2.21-2.9-5.2a18.53,18.53,0,0,1,.22-2c1.11-4.13-1.57-6.76-3.84-9.48a3.16,3.16,0,0,0-2.39-.63c-1.89.17-3.75.6-5.64.87-2.34.33-3.33-.13-4.19-2.34Q3.08,127.81.39,120.2c-.78-2.23-.47-3.61,1.68-4.43,4.45-1.69,5.26-4.92,4.7-9a1.29,1.29,0,0,1,0-.34c.66-3.88-.51-6.72-4-9-3.08-2-3-3.1-1.42-6.55C3.2,86.93,5.16,83,6.92,79c.91-2,2.24-3,4.45-2.62a6.3,6.3,0,0,1,1.33.15c5.92,2.43,9-2.06,12.57-5.22a2.86,2.86,0,0,0,.55-2.09c-.12-1.33-.54-2.63-.75-4-.38-2.49.15-3.52,2.5-4.43Q34.92,58,42.36,55.31c2.31-.84,3.18-.52,4.52,1.47,1,1.49,1.92,3,2.82,4.58A3.18,3.18,0,0,0,53,63.12a29.61,29.61,0,0,0,4-.27,8.5,8.5,0,0,0,3.16-1.59A34.81,34.81,0,0,0,63,58.34c2.57-2.57,3-2.68,6.14-1.24,3.57,1.63,7.08,3.38,10.65,5A3.7,3.7,0,0,1,82.25,66a9,9,0,0,1-.1,2.34c-1.66,4.48,1,7.47,3.55,10.49a3.89,3.89,0,0,0,2.28,1A23.51,23.51,0,0,0,91.34,80ZM96,122.32a28.62,28.62,0,0,0-3.11-2.77,4.69,4.69,0,0,1-2.2-4.55q.18-5.39,0-10.76c-.07-2.14.5-3.67,2.58-4.57a30.12,30.12,0,0,0,3.54-2.18c-1.48-3.93-2.89-7.65-4.26-11.3a57.31,57.31,0,0,0-5.77,0,4.92,4.92,0,0,1-5.15-2.35A58.78,58.78,0,0,0,78.13,79c-1.89-2.36-3.28-4.78-2.23-8A13.12,13.12,0,0,0,76,69a2.2,2.2,0,0,0-1.49-2.65c-2.43-1.08-4.85-2.22-7.74-3.55-1,1.2-2.1,2.35-3.08,3.56a6.36,6.36,0,0,1-5,2.36c-2.46.12-4.91.32-7.35.64s-4.31-.34-5.52-2.73a52.06,52.06,0,0,0-3.32-5.05L31.37,65.88A22.76,22.76,0,0,0,32,69.54c.86,2.51,0,4.28-2,5.85a57.16,57.16,0,0,0-5.52,4.9c-2.55,2.6-5.31,4-9,2.65a8.7,8.7,0,0,0-2-.2,2.14,2.14,0,0,0-2.39,1.42C9.78,87.1,8.44,90,7,93.14c1.18,1,2.16,1.87,3.25,2.62a5.89,5.89,0,0,1,2.68,5.43q-.16,6.23,0,12.45a4.2,4.2,0,0,1-2.33,4.1c-1.24.71-2.44,1.49-3.86,2.36L11,131.33c2.36-.35,4.35-.6,6.31-1,2.21-.41,3.92.09,5.15,2.14a30.57,30.57,0,0,0,3.32,4.64c2.42,2.72,3.43,5.67,2.3,9.25-.52,1.68.25,2.76,1.86,3.39a36.37,36.37,0,0,1,4.61,2c1.74.95,3.14.9,4.42-.73.55-.7,1.28-1.25,1.88-1.92A5.85,5.85,0,0,1,45.12,147c3-.13,6-.65,9-1a3.94,3.94,0,0,1,3.8,1.68,35.3,35.3,0,0,0,3.19,3.89,2.79,2.79,0,0,0,2.27.77c3.38-1.13,6.68-2.48,10.21-3.83-.27-1.64-.43-3.07-.74-4.47a4,4,0,0,1,1.25-4.25c2.38-2,4.77-4.07,7.11-6.14a4.7,4.7,0,0,1,4.06-1.06c2,.26,4,.33,6,.49Z"/><path d="M139,13.13a12.78,12.78,0,0,1-.68,2,4.11,4.11,0,0,0,.53,5.47c1.28,1.39,2.2,3.12,4.52,2.88a17.54,17.54,0,0,1,2,.32,3,3,0,0,1,3.12,2.5c.89,3.59,1.8,7.16,2.61,10.77A3.8,3.8,0,0,1,149,41.62a23.49,23.49,0,0,0-2.56,1.62,4.6,4.6,0,0,0-.44,7.38c2.69,2.47,2.84,3.23,1,6.27s-3.72,5.86-5.54,8.81c-1.09,1.77-2.49,2.51-4.53,1.72a6.3,6.3,0,0,0-1-.2c-4.54-1.09-7.38,1-7.8,5.79-.38,4.38-.73,4.76-5.06,5.73-2.41.54-4.81,1.07-7.19,1.7a3.42,3.42,0,0,1-4.27-1.73q-.77-1.3-1.62-2.55c-2-2.87-5.44-3.15-7.71-.64-3,3.32-3.92,3.46-7.71,1.12-2.67-1.65-5.35-3.28-8-5-2.34-1.54-2.9-2.71-1.65-5s.67-4.07-.85-6c-1.73-2.21-3.31-3.94-6.57-3.61-2.72.29-3.58-.67-4.2-3.32-.8-3.38-1.41-6.79-2.21-10.17a3.59,3.59,0,0,1,2.06-4.43,3,3,0,0,1,.59-.31c3.74-1.1,4.34-4.23,4.53-7.4,0-.87-.83-2-1.56-2.69-2.7-2.59-2.87-3.39-.9-6.59,1.71-2.77,3.39-5.55,5.16-8.27,1.67-2.56,2.5-2.8,5.31-1.83.42.15.83.33,1.25.48,3.38,1.18,6.12-.32,7-3.84a12.19,12.19,0,0,0,.26-2c.27-3.47.72-4,4-4.76,2.62-.57,5.29-.95,7.87-1.66a3.76,3.76,0,0,1,4.76,2,14.61,14.61,0,0,1,1.07,1.7c1.09,2.61,3.5,2.9,5.79,3.31a2.84,2.84,0,0,0,1.78-.65c.91-.64,1.71-1.44,2.58-2.15A3.45,3.45,0,0,1,127,4c3.43,2.13,6.9,4.19,10.22,6.46C138.08,11.07,138.5,12.36,139,13.13ZM81.24,24.87c.68.45,1.17.72,1.62,1.07a4.47,4.47,0,0,1,1.7,5.32,53.4,53.4,0,0,0-1.41,6.9A5,5,0,0,1,80.34,42c-3.1,1.66-3,1.74-2.28,5.28.15.65.27,1.32.41,2A1.83,1.83,0,0,0,80.6,51c3-.29,4.81,1.35,6.37,3.57a33.35,33.35,0,0,0,3.08,4c2.32,2.45,3.23,5,1.48,8.2-.08.15,0,.42.12.89l5.95,3.76a34.21,34.21,0,0,1,3.28-3.09c.84-.62,2.1-1.44,2.9-1.21,4.38,1.25,9.57,1.18,11.81,6.41.07.17.35.26.77.54,1.33-.29,2.84-.66,4.36-1a1.81,1.81,0,0,0,1.66-2.13c-.31-3.22,1.61-5.21,3.79-7.08a18.68,18.68,0,0,0,2.25-2c1.42-1.71,3.21-1.87,5.18-1.49,3.65.71,3.66.72,5.54-2.29.7-1.12,1.34-2.29,2.16-3.7-3.89-2.1-3.81-5.3-2.71-8.77a6.61,6.61,0,0,0,.23-1.33,6.76,6.76,0,0,1,4.15-6,9.88,9.88,0,0,0,1.9-1.53c-.64-2.44-1.25-4.78-2-7.43-4.4,1.3-6.4-1.48-8.34-4.36-.25-.37-.54-.71-.81-1.07-3.32-4.4-3.32-4.4-1.92-9.73l-6.34-3.94A14.45,14.45,0,0,0,123.2,12c-1.84,2.06-3.93,2.28-6.38,1.27A26.37,26.37,0,0,0,112.64,12a6.55,6.55,0,0,1-4.2-3.08c-1.7-2.64-1.89-2.66-4.91-1.91-.85.21-1.69.51-2.71.83a19.76,19.76,0,0,1-.44,2.95A8.55,8.55,0,0,1,99,14.1c-1.59,1.72-3.49,3.14-5.23,4.73a3.7,3.7,0,0,1-4.32.76c-1.21-.52-2.49-.86-4-1.36Z"/></g></g></svg>