<svg xmlns="http://www.w3.org/2000/svg" viewBox="0 0 108.13 162.35"><title>Asset 2</title><g id="Layer_2" data-name="Layer 2"><g id="Layer_1-2" data-name="Layer 1"><path d="M108.12,83.07v73.06c0,1,0,1.94,0,2.91-.15,2.19-.91,3-3.09,3.26a13.64,13.64,0,0,1-1.81,0H64.67c-.61,0-1.21,0-1.82,0a3.32,3.32,0,0,1-3.46-3.06,17.66,17.66,0,0,1-.25-3.25q0-73,0-146.11a19.78,19.78,0,0,1,0-2.18c.31-3.09,1.3-4.12,4.35-4.13q20.35-.06,40.71,0c3.35,0,3.88.73,3.88,4.61q0,34.89,0,69.78Zm-6.85,72.45c.9-4.08.72-142.73-.14-145.32-4.52-.66-32.47-.46-35.16.29V21c1.4.08,2.58.19,3.76.2,4.85,0,9.7,0,14.54,0a14.64,14.64,0,0,1,2.89.21,2.89,2.89,0,0,1,2.53,3.06,3.09,3.09,0,0,1-2.82,3.23,15.34,15.34,0,0,1-2.54.07c-5.09,0-10.18,0-15.26,0-1,0-2.08.18-3.2.29A53,53,0,0,0,66,38c2.64,0,4.93-.1,7.22,0s3.41,1,3.59,2.78c.25,2.32-.78,3.57-3.33,3.73s-5,.13-7.46.19V55.24c1.35.06,2.43.16,3.5.16,4.85,0,9.69,0,14.54,0a15.93,15.93,0,0,1,3.24.26,2.83,2.83,0,0,1,2.37,3.18,3,3,0,0,1-2.61,3,12.56,12.56,0,0,1-2.53.12c-5.09,0-10.18,0-15.27,0-1,0-2.1.15-3.4.26A74,74,0,0,0,66,74.66c1.48.07,2.56.14,3.63.16,1.46,0,2.91,0,4.36,0,2.83.09,4,1,4,3.08S76.93,81,74.16,81.11c-1.58,0-3.15,0-4.73,0-1.15,0-2.3.15-3.44.23V94.46h6.69c4.48,0,9-.07,13.45,0,2.9.07,4.33,2.22,3.24,4.57-.75,1.61-2.18,1.69-3.68,1.69q-7.81,0-15.63,0c-1.3,0-2.6.1-4,.17v11.51c1.47.07,2.65.16,3.84.18,1.58,0,3.16-.06,4.73,0,2.44.14,3.53,1.24,3.45,3.27-.09,1.88-1.13,2.83-3.37,3-1.09.07-2.18,0-3.27,0-1.78,0-3.55.11-5.65.18.09,4.54-.35,8.7.31,13.15,6.37,0,12.41,0,18.45,0a13.92,13.92,0,0,1,3.23.28,2.62,2.62,0,0,1,1.93,2.76,2.81,2.81,0,0,1-2,3.06,11.08,11.08,0,0,1-2.89.18c-5.09,0-10.18,0-15.27,0-1.16,0-2.32.13-3.48.21v16.73Z"/><path d="M41,139.53v-4.47q0-38,0-76a23.07,23.07,0,0,1,.11-3.63,3.2,3.2,0,0,1,6.37.12,24.39,24.39,0,0,1,.11,3.63c0,27.86-.17,55.73.1,83.59.09,8.85-4.47,14.49-12.26,17.22a31.82,31.82,0,0,1-20.34.2A21.7,21.7,0,0,1,.23,139.92c0-6.18,0-12.36,0-18.53Q.14,90,0,58.52A22.26,22.26,0,0,1,.1,55.25a2.87,2.87,0,0,1,3.25-2.7,2.73,2.73,0,0,1,2.93,3c.1,3.63,0,7.27,0,10.9,0,5,0,9.94,0,14.9q.23,27.6.51,55.2c0,.94.14,1.87.23,3Zm-.3,6.82c-10.63,0-21-.12-31.76.13a11.26,11.26,0,0,0,7.54,7.37,27.22,27.22,0,0,0,17.07,0,14.52,14.52,0,0,0,3.82-2A7.17,7.17,0,0,0,40.65,146.35Z"/><path d="M8.64,42H37a17.41,17.41,0,0,0-.63-2.43c-1.16-2.65-2.41-5.27-3.56-7.93a10,10,0,0,1-.73-2.75A2.6,2.6,0,0,1,34,25.84a3.11,3.11,0,0,1,3.8,1.32,28.18,28.18,0,0,1,1.74,3.58c1.59,3.52,3.16,7.05,4.75,10.57,2.63,5.78,1.44,7.64-5,7.58-3.85,0-7.7-.42-11.56-.46-7.25-.08-14.51,0-21.77,0-.84,0-1.69.05-2.53,0C.59,48.15-.45,46.51.48,43.89a11.22,11.22,0,0,1,.59-1.33Q4.7,35.27,8.37,28a10,10,0,0,1,1.36-2.12A2.84,2.84,0,0,1,13.32,25a2.92,2.92,0,0,1,1.7,3.6,16.18,16.18,0,0,1-1.25,3C12.21,34.84,10.61,38.05,8.64,42Z"/><path d="M23.8,22.71c-2.42,0-4.85.15-7.25,0-3.94-.29-5.08-2.28-3.46-5.89C15.16,12.16,17.32,7.57,19.44,3,20.12,1.5,20.9.09,22.75,0s2.82,1.18,3.62,2.6c2.68,4.73,5.4,9.44,8,14.21,1.83,3.34.53,5.64-3.31,5.89-2.41.15-4.84,0-7.26,0Zm-.42-12.16-2.68,5.3h5.5Z"/></g></g></svg>