<svg xmlns="http://www.w3.org/2000/svg" viewBox="0 0 151.71 168.27"><title>Asset 1</title><g id="Layer_2" data-name="Layer 2"><g id="Layer_1-2" data-name="Layer 1"><path d="M87.93,70.47h16.33c.14-1.25.37-2.41.39-3.57.06-3.21,0-6.41,0-9.61.09-5.77,1.25-6.91,7-6.92h33.41a25,25,0,0,1,2.74,0c2.83.32,3.64,1.21,3.83,4.09,0,.45,0,.91,0,1.37q0,19,0,38c0,4.94-.66,5.62-5.47,5.63q-17.85.06-35.7,0c-4.36,0-5.61-1.21-5.82-5.71-.15-3.2,0-6.41,0-9.61,0-1.49-.14-3-.25-5.09H87.88c-.1,2-.24,3.64-.26,5.25,0,3.67.06,7.33,0,11-.09,3.1-1,4-4.16,4.16-.92.06-1.83,0-2.75,0H48.54c-1,4.78-.51,9.13-.39,13.85,9.39,2.22,16.75,7.1,20.86,16.11a27.56,27.56,0,0,1,1.64,17.82c-2.69,12.27-14.38,21.57-27.94,21-12.35-.55-23.43-9.67-25.74-22.08a26.85,26.85,0,0,1,4.33-20.92c4.36-6.33,10.56-9.94,18.09-11.77V99.75c-1.82-.09-3.44-.23-5.06-.24-9.46,0-18.92,0-28.38,0-4.8,0-5.88-1-5.91-5.94Q0,75,0,56.48c0-5,1.21-6.08,6.31-6.1,9.16,0,18.31,0,27.46,0h5.61a143,143,0,0,0,0-16.82c-1.94-.09-3.57-.23-5.2-.24-7.63,0-15.25,0-22.88,0-4.48,0-5.78-1.26-5.84-5.69-.1-7.32-.09-14.64,0-22C5.6,1.24,6.88,0,11.41,0Q43.68,0,75.94,0c4.5,0,5.23.84,5.25,5.43q.06,11.22,0,22.43c0,4.43-.91,5.35-5.38,5.39-7.33.07-14.65,0-22,0H48.21a140.75,140.75,0,0,0-.05,16.82c1.93.09,3.56.23,5.18.24q13.52,0,27,0c1.06,0,2.14-.06,3.2,0,3.1.28,4,1.14,4,4.32.09,3.81,0,7.63,0,11.44C87.64,67.51,87.81,68.84,87.93,70.47ZM79.37,58.91c-5.73-1.06-67.71-.8-70.95.21-1,6-.65,29,.47,32.12H79.37ZM44,121.48c-10.47,0-19.74,8.78-19.48,19,.31,12.12,9.28,19.52,19.38,19.66,10.57.15,19.6-9.09,19.46-19.57A19.53,19.53,0,0,0,44,121.48Zm99.14-30.12c1.07-5.71.83-29.45-.35-33-9.7-.08-19.52-.12-29.22,0-1,6.05-.77,29.58.31,33ZM73.05,8.56c-6.12-1.11-56-.81-59.23.26V24.49c6.3,1,55.86.69,59.23-.39Z"/></g></g></svg>